<?xml version="1.0" encoding="utf-8"?>
<!-- Generator: Adobe Illustrator 24.0.1, SVG Export Plug-In . SVG Version: 6.00 Build 0)  -->
<svg version="1.1" xmlns="http://www.w3.org/2000/svg" xmlns:xlink="http://www.w3.org/1999/xlink" x="0px" y="0px"
	 viewBox="0 0 404.05 252.95" style="enable-background:new 0 0 404.05 252.95;" xml:space="preserve">
<style type="text/css">
	.st0{fill-rule:evenodd;clip-rule:evenodd;fill:#191919;}
	.st1{fill-rule:evenodd;clip-rule:evenodd;fill:#304FF3;}
	.st2{fill-rule:evenodd;clip-rule:evenodd;fill:#505050;}
	.st3{fill-rule:evenodd;clip-rule:evenodd;fill:#FFFFFF;}
</style>
<g id="Layer_2">
	<rect class="st0" width="404.05" height="252.95"/>
</g>
<g id="Layer_1">
	<g>
		<g>
			<path class="st3" d="M186.03,109.55c-0.37-0.79-0.87-1.46-1.5-2.04c-0.62-0.56-1.33-1.04-2.12-1.44
				c-0.81-0.4-1.62-0.75-2.45-1.08c-0.83-0.31-1.64-0.63-2.43-0.94c-0.79-0.29-1.5-0.65-2.12-1.02c-0.62-0.38-1.14-0.81-1.52-1.31
				c-0.39-0.5-0.58-1.1-0.58-1.85c0-0.46,0.08-0.9,0.29-1.31c0.21-0.42,0.5-0.77,0.91-1.06c0.39-0.29,0.91-0.52,1.54-0.69
				c0.62-0.17,1.33-0.25,2.14-0.25c0.91,0,1.73,0.08,2.43,0.21c0.71,0.15,1.33,0.29,1.85,0.46c0.52,0.17,0.96,0.33,1.29,0.46
				c0.33,0.15,0.58,0.21,0.77,0.21c0.1,0,0.21-0.02,0.31-0.1c0.08-0.06,0.17-0.19,0.25-0.35c0.06-0.17,0.1-0.37,0.15-0.63
				c0.02-0.25,0.04-0.56,0.04-0.92c0-0.33-0.02-0.6-0.04-0.83c-0.04-0.21-0.06-0.4-0.1-0.56c-0.04-0.15-0.08-0.29-0.15-0.42
				c-0.08-0.12-0.23-0.23-0.44-0.33c-0.21-0.1-0.52-0.23-0.93-0.37c-0.42-0.12-0.91-0.27-1.5-0.4c-0.58-0.12-1.25-0.21-1.98-0.29
				c-0.75-0.08-1.47-0.12-2.18-0.12c-1.66,0-3.12,0.21-4.37,0.63c-1.25,0.42-2.29,0.98-3.12,1.67c-0.83,0.69-1.46,1.48-1.87,2.4
				c-0.42,0.92-0.62,1.88-0.62,2.87c0,1.13,0.19,2.1,0.56,2.92c0.37,0.81,0.9,1.52,1.52,2.1c0.62,0.58,1.35,1.08,2.14,1.48
				c0.79,0.42,1.62,0.77,2.46,1.08c0.83,0.33,1.62,0.63,2.41,0.92c0.79,0.29,1.5,0.65,2.12,1.02c0.62,0.37,1.14,0.81,1.52,1.29
				c0.37,0.5,0.58,1.1,0.58,1.81c0,0.67-0.12,1.23-0.37,1.71c-0.25,0.48-0.62,0.87-1.08,1.17c-0.48,0.31-1.04,0.54-1.66,0.71
				c-0.64,0.17-1.35,0.23-2.12,0.23c-1.06,0-2-0.13-2.79-0.42c-0.81-0.27-1.52-0.58-2.1-0.92c-0.58-0.33-1.08-0.63-1.47-0.92
				c-0.42-0.27-0.71-0.42-0.92-0.42c-0.15,0-0.27,0.04-0.35,0.1c-0.1,0.08-0.19,0.19-0.25,0.35c-0.06,0.17-0.1,0.38-0.15,0.63
				c-0.04,0.25-0.04,0.56-0.04,0.94c0,0.62,0.04,1.1,0.15,1.46c0.08,0.35,0.25,0.65,0.46,0.85c0.21,0.21,0.56,0.46,1.04,0.71
				c0.46,0.27,1.04,0.52,1.71,0.77c0.66,0.25,1.43,0.46,2.29,0.62c0.83,0.17,1.72,0.23,2.66,0.23c1.52,0,2.91-0.17,4.18-0.54
				c1.27-0.35,2.37-0.87,3.29-1.58c0.91-0.69,1.62-1.54,2.12-2.56c0.5-1.02,0.75-2.19,0.75-3.5
				C186.62,111.28,186.41,110.34,186.03,109.55z"/>
			<path class="st3" d="M210.5,111.57c-0.71,0.94-1.39,1.73-2.02,2.36c-0.62,0.62-1.23,1.15-1.81,1.54
				c-0.58,0.4-1.14,0.67-1.68,0.83c-0.56,0.17-1.14,0.25-1.73,0.25c-1.18,0-2.16-0.27-2.93-0.85c-0.79-0.58-1.41-1.33-1.87-2.29
				c-0.48-0.94-0.81-2.02-1-3.25c-0.19-1.23-0.27-2.5-0.27-3.81c0-1.21,0.1-2.4,0.33-3.56c0.23-1.17,0.58-2.21,1.08-3.12
				c0.5-0.92,1.14-1.67,1.94-2.25c0.79-0.56,1.77-0.85,2.91-0.85c1.23,0,2.41,0.42,3.54,1.25c1.12,0.83,2.31,2.02,3.52,3.58V111.57z
				 M215.82,93.46c0-0.17-0.04-0.31-0.12-0.44c-0.08-0.1-0.21-0.19-0.37-0.27c-0.19-0.08-0.44-0.12-0.73-0.17
				c-0.29-0.02-0.66-0.04-1.08-0.04c-0.46,0-0.85,0.02-1.14,0.04c-0.29,0.04-0.54,0.08-0.73,0.17c-0.21,0.08-0.33,0.19-0.42,0.31
				c-0.08,0.12-0.12,0.27-0.12,0.44v3.4c-0.79-0.77-1.52-1.44-2.18-2c-0.66-0.54-1.33-1-1.98-1.35c-0.67-0.33-1.31-0.58-1.97-0.75
				c-0.67-0.17-1.37-0.25-2.12-0.25c-1.79,0-3.37,0.33-4.74,1c-1.37,0.67-2.52,1.62-3.43,2.88c-0.93,1.25-1.64,2.77-2.1,4.52
				c-0.48,1.77-0.71,3.75-0.71,5.94c0,1.85,0.19,3.61,0.56,5.27c0.37,1.67,0.96,3.13,1.79,4.35c0.81,1.25,1.87,2.23,3.16,2.96
				c1.29,0.73,2.87,1.08,4.7,1.08c0.73,0,1.43-0.06,2.12-0.21c0.68-0.13,1.37-0.37,2.04-0.71c0.66-0.33,1.35-0.75,2.06-1.29
				c0.71-0.54,1.43-1.19,2.21-1.98v13.9c0,0.15,0.02,0.29,0.1,0.42c0.08,0.12,0.23,0.21,0.44,0.31c0.21,0.06,0.48,0.13,0.81,0.17
				c0.33,0.04,0.77,0.06,1.31,0.06c0.5,0,0.93-0.02,1.27-0.06c0.33-0.04,0.6-0.1,0.81-0.17c0.19-0.1,0.33-0.19,0.44-0.29
				c0.08-0.15,0.15-0.27,0.15-0.42V93.46z"/>
			<path class="st3" d="M247.84,93.44c0-0.15-0.06-0.27-0.15-0.37c-0.1-0.1-0.25-0.21-0.44-0.29c-0.21-0.08-0.48-0.15-0.81-0.19
				c-0.33-0.02-0.77-0.04-1.27-0.04c-0.54,0-0.98,0.02-1.31,0.04c-0.33,0.04-0.6,0.1-0.81,0.19c-0.21,0.08-0.35,0.19-0.44,0.29
				c-0.08,0.1-0.1,0.23-0.1,0.37v18.32c-1.25,1.58-2.44,2.77-3.54,3.58c-1.1,0.81-2.21,1.21-3.33,1.21c-0.87,0-1.62-0.17-2.27-0.52
				c-0.64-0.35-1.18-0.85-1.6-1.5c-0.42-0.65-0.73-1.42-0.94-2.33c-0.21-0.92-0.31-2.13-0.31-3.65V93.44c0-0.15-0.04-0.27-0.12-0.37
				c-0.08-0.1-0.23-0.21-0.44-0.29c-0.21-0.08-0.5-0.15-0.83-0.19c-0.33-0.02-0.77-0.04-1.27-0.04c-0.52,0-0.96,0.02-1.29,0.04
				c-0.33,0.04-0.62,0.1-0.83,0.19c-0.21,0.08-0.35,0.19-0.44,0.29c-0.08,0.1-0.1,0.23-0.1,0.37v15.67c0,1.88,0.15,3.48,0.46,4.79
				c0.31,1.31,0.83,2.46,1.56,3.44c0.71,1,1.66,1.77,2.83,2.36c1.16,0.58,2.62,0.85,4.33,0.85c1.46,0,2.89-0.33,4.33-1.04
				c1.41-0.69,2.87-1.79,4.33-3.33v3.48c0,0.17,0.02,0.29,0.08,0.4c0.06,0.1,0.19,0.19,0.37,0.27c0.17,0.08,0.42,0.12,0.73,0.17
				c0.31,0.04,0.73,0.06,1.23,0.06c0.44,0,0.81-0.02,1.12-0.06c0.31-0.04,0.56-0.08,0.75-0.17c0.19-0.08,0.31-0.17,0.39-0.27
				c0.08-0.1,0.12-0.23,0.12-0.4V93.44z"/>
			<path class="st3" d="M271.56,113.26c-1.08,1.12-2.1,1.94-3.06,2.48c-0.98,0.54-2.04,0.81-3.16,0.81c-1.42,0-2.5-0.33-3.27-1.02
				c-0.79-0.67-1.17-1.58-1.17-2.75c0-0.67,0.12-1.25,0.4-1.77c0.27-0.52,0.69-0.96,1.27-1.33c0.58-0.37,1.31-0.65,2.18-0.83
				c0.87-0.19,1.89-0.29,3.1-0.29h3.7V113.26z M276.88,102.27c0-1.6-0.19-3-0.54-4.21c-0.37-1.21-0.96-2.21-1.77-3.02
				c-0.81-0.81-1.87-1.44-3.16-1.85c-1.29-0.42-2.87-0.65-4.72-0.65c-1,0-2,0.1-2.97,0.31c-0.98,0.21-1.87,0.46-2.71,0.77
				c-0.83,0.31-1.56,0.65-2.18,1.02c-0.62,0.37-1.08,0.69-1.33,0.94c-0.25,0.25-0.42,0.5-0.48,0.75c-0.08,0.27-0.1,0.65-0.1,1.1
				c0,0.29,0,0.54,0.04,0.77c0.04,0.23,0.1,0.42,0.19,0.56c0.08,0.15,0.17,0.25,0.29,0.33c0.1,0.08,0.23,0.1,0.4,0.1
				c0.21,0,0.54-0.13,1-0.42c0.46-0.27,1.02-0.58,1.68-0.92c0.67-0.33,1.44-0.62,2.33-0.92c0.89-0.27,1.91-0.42,3.04-0.42
				c1.04,0,1.91,0.15,2.64,0.4c0.71,0.25,1.29,0.62,1.75,1.12c0.46,0.5,0.77,1.15,0.98,1.9c0.21,0.75,0.31,1.62,0.31,2.6v1.98h-3.45
				c-1.95,0-3.7,0.19-5.24,0.52c-1.56,0.35-2.87,0.88-3.95,1.56c-1.08,0.69-1.89,1.54-2.48,2.58c-0.58,1.04-0.85,2.27-0.85,3.69
				c0,1.21,0.21,2.29,0.62,3.25c0.42,0.96,1,1.75,1.75,2.4c0.75,0.65,1.66,1.15,2.75,1.48c1.08,0.35,2.27,0.52,3.6,0.52
				c1.5,0,2.94-0.27,4.29-0.83c1.35-0.54,2.58-1.44,3.68-2.67v2.63c0,0.25,0.06,0.42,0.23,0.54c0.15,0.13,0.39,0.21,0.73,0.25
				c0.33,0.06,0.77,0.08,1.35,0.08c0.58,0,1.02-0.02,1.33-0.08c0.29-0.04,0.54-0.12,0.71-0.25c0.17-0.12,0.27-0.29,0.27-0.52V102.27
				z"/>
			<path class="st3" d="M302.31,94.27c0-0.23-0.02-0.4-0.06-0.52c-0.04-0.12-0.06-0.21-0.1-0.29c-0.04-0.08-0.1-0.17-0.23-0.25
				c-0.12-0.08-0.31-0.17-0.6-0.25c-0.29-0.08-0.62-0.15-0.98-0.23c-0.35-0.06-0.69-0.1-1.02-0.15c-0.33-0.02-0.62-0.04-0.87-0.04
				c-0.58,0-1.14,0.08-1.71,0.21c-0.56,0.12-1.12,0.37-1.7,0.71c-0.58,0.35-1.19,0.83-1.81,1.44c-0.64,0.63-1.33,1.4-2.06,2.35
				v-3.81c0-0.15-0.04-0.27-0.12-0.37c-0.08-0.1-0.21-0.21-0.37-0.29c-0.17-0.08-0.42-0.15-0.73-0.19
				c-0.31-0.02-0.71-0.04-1.16-0.04c-0.5,0-0.89,0.02-1.18,0.04c-0.31,0.04-0.56,0.1-0.75,0.19c-0.21,0.08-0.33,0.19-0.39,0.29
				c-0.06,0.1-0.08,0.23-0.08,0.37v26.22c0,0.17,0.02,0.29,0.1,0.4c0.08,0.1,0.21,0.19,0.42,0.27c0.21,0.08,0.48,0.12,0.83,0.17
				c0.33,0.04,0.77,0.06,1.29,0.06c0.54,0,0.98-0.02,1.33-0.06c0.33-0.04,0.6-0.08,0.81-0.17c0.19-0.08,0.33-0.17,0.41-0.27
				c0.08-0.1,0.12-0.23,0.12-0.4v-17.24c0.69-1.08,1.31-2.02,1.89-2.77c0.56-0.75,1.1-1.35,1.62-1.81s1.02-0.77,1.5-0.98
				c0.46-0.21,0.95-0.31,1.45-0.31c0.39,0,0.77,0.04,1.12,0.12c0.35,0.08,0.69,0.17,0.98,0.25c0.29,0.08,0.54,0.19,0.77,0.27
				c0.21,0.08,0.42,0.12,0.58,0.12c0.15,0,0.27-0.04,0.35-0.12c0.08-0.08,0.17-0.23,0.23-0.4c0.04-0.17,0.08-0.37,0.1-0.63
				c0.02-0.25,0.04-0.58,0.04-0.96C302.33,94.83,302.31,94.52,302.31,94.27z"/>
			<path class="st3" d="M310.95,103.21c0.04-0.88,0.21-1.71,0.52-2.52c0.29-0.81,0.73-1.52,1.31-2.12c0.56-0.6,1.27-1.08,2.1-1.46
				c0.83-0.37,1.79-0.56,2.91-0.56c2.16,0,3.79,0.6,4.89,1.77c1.1,1.19,1.62,2.81,1.58,4.9H310.95z M329.59,104.38
				c0-1.63-0.23-3.15-0.66-4.58c-0.44-1.44-1.12-2.69-2.04-3.75c-0.92-1.06-2.1-1.92-3.54-2.54c-1.44-0.62-3.18-0.96-5.22-0.96
				c-1.91,0-3.64,0.33-5.18,0.98c-1.54,0.67-2.87,1.6-3.95,2.81c-1.1,1.21-1.94,2.69-2.52,4.44c-0.58,1.75-0.85,3.71-0.85,5.9
				c0,2.31,0.27,4.33,0.83,6.06c0.54,1.75,1.37,3.19,2.45,4.34c1.08,1.17,2.43,2.02,4.04,2.6c1.58,0.58,3.45,0.88,5.57,0.88
				c1.21,0,2.37-0.12,3.45-0.38c1.08-0.25,2.02-0.52,2.85-0.83c0.81-0.31,1.48-0.62,2-0.96c0.5-0.33,0.81-0.54,0.91-0.67
				c0.1-0.1,0.19-0.21,0.27-0.33c0.06-0.12,0.1-0.25,0.15-0.4c0.02-0.15,0.04-0.31,0.06-0.52c0.02-0.19,0.04-0.42,0.04-0.67
				c0-0.35-0.02-0.67-0.04-0.92c-0.04-0.25-0.08-0.44-0.12-0.58c-0.06-0.12-0.15-0.23-0.25-0.31c-0.1-0.06-0.21-0.1-0.33-0.1
				c-0.25,0-0.58,0.15-1.02,0.42c-0.44,0.29-1,0.58-1.68,0.92c-0.69,0.33-1.5,0.65-2.43,0.92c-0.94,0.29-2,0.42-3.18,0.42
				c-1.54,0-2.83-0.21-3.87-0.65c-1.04-0.44-1.89-1.06-2.54-1.9c-0.66-0.81-1.12-1.79-1.41-2.94c-0.29-1.13-0.42-2.42-0.42-3.85
				h16.81c0.48,0,0.9-0.15,1.27-0.46c0.37-0.29,0.56-0.81,0.56-1.54V104.38z"/>
			<path class="st3" d="M97.1,93.44c0-0.15-0.06-0.27-0.15-0.37c-0.1-0.1-0.25-0.21-0.44-0.29c-0.21-0.08-0.48-0.15-0.81-0.19
				c-0.33-0.02-0.77-0.04-1.27-0.04c-0.54,0-0.98,0.02-1.31,0.04c-0.33,0.04-0.6,0.1-0.81,0.19c-0.21,0.08-0.35,0.19-0.44,0.29
				c-0.08,0.1-0.1,0.23-0.1,0.37v18.32c-1.25,1.58-2.43,2.77-3.54,3.58c-1.1,0.81-2.2,1.21-3.33,1.21c-0.87,0-1.62-0.17-2.27-0.52
				c-0.64-0.35-1.19-0.85-1.6-1.5c-0.42-0.65-0.73-1.42-0.93-2.33c-0.21-0.92-0.31-2.13-0.31-3.65V93.44c0-0.15-0.04-0.27-0.12-0.37
				c-0.08-0.1-0.23-0.21-0.44-0.29c-0.21-0.08-0.5-0.15-0.83-0.19c-0.33-0.02-0.77-0.04-1.27-0.04c-0.52,0-0.96,0.02-1.29,0.04
				c-0.33,0.04-0.62,0.1-0.83,0.19c-0.21,0.08-0.35,0.19-0.44,0.29c-0.08,0.1-0.1,0.23-0.1,0.37v15.67c0,1.88,0.15,3.48,0.46,4.79
				c0.31,1.31,0.83,2.46,1.56,3.44c0.71,1,1.66,1.77,2.83,2.36c1.17,0.58,2.62,0.85,4.33,0.85c1.45,0,2.89-0.33,4.33-1.04
				c1.41-0.69,2.87-1.79,4.33-3.33v3.48c0,0.17,0.02,0.29,0.08,0.4c0.06,0.1,0.19,0.19,0.37,0.27c0.17,0.08,0.42,0.12,0.73,0.17
				c0.31,0.04,0.73,0.06,1.23,0.06c0.44,0,0.81-0.02,1.12-0.06c0.31-0.04,0.56-0.08,0.75-0.17c0.19-0.08,0.31-0.17,0.39-0.27
				c0.08-0.1,0.12-0.23,0.12-0.4V93.44z"/>
			<path class="st3" d="M128.45,103.9c0-1.83-0.17-3.4-0.48-4.71c-0.31-1.31-0.83-2.46-1.54-3.44c-0.73-0.96-1.69-1.75-2.85-2.33
				c-1.16-0.58-2.6-0.88-4.31-0.88c-1.46,0-2.91,0.35-4.35,1.06c-1.43,0.71-2.87,1.81-4.31,3.31v-3.48c0-0.15-0.04-0.27-0.12-0.37
				c-0.08-0.1-0.21-0.21-0.37-0.29c-0.17-0.08-0.42-0.15-0.73-0.19c-0.31-0.02-0.71-0.04-1.17-0.04c-0.5,0-0.89,0.02-1.18,0.04
				c-0.31,0.04-0.56,0.1-0.75,0.19c-0.21,0.08-0.33,0.19-0.39,0.29c-0.06,0.1-0.08,0.23-0.08,0.37v26.22c0,0.17,0.02,0.29,0.1,0.4
				c0.08,0.1,0.21,0.19,0.41,0.27c0.21,0.08,0.48,0.12,0.83,0.17c0.33,0.04,0.77,0.06,1.29,0.06c0.54,0,0.98-0.02,1.33-0.06
				c0.33-0.04,0.6-0.08,0.81-0.17c0.19-0.08,0.33-0.17,0.42-0.27c0.08-0.1,0.12-0.23,0.12-0.4v-18.13c1.21-1.63,2.37-2.85,3.5-3.71
				c1.12-0.83,2.23-1.27,3.35-1.27c0.85,0,1.6,0.19,2.27,0.52c0.64,0.35,1.18,0.85,1.6,1.5c0.42,0.67,0.73,1.44,0.94,2.33
				c0.21,0.92,0.33,2.1,0.33,3.56v15.19c0,0.17,0.04,0.29,0.13,0.4c0.08,0.1,0.21,0.19,0.42,0.27c0.19,0.08,0.46,0.12,0.81,0.17
				c0.33,0.04,0.79,0.06,1.33,0.06c0.5,0,0.93-0.02,1.29-0.06c0.33-0.04,0.6-0.08,0.81-0.17c0.19-0.08,0.33-0.17,0.42-0.27
				c0.08-0.1,0.13-0.23,0.13-0.4V103.9z"/>
			<path class="st3" d="M156.79,110.63c-0.31,1.21-0.79,2.27-1.46,3.15c-0.66,0.87-1.5,1.56-2.52,2.04c-1.02,0.5-2.22,0.73-3.6,0.73
				c-1.54,0-2.81-0.25-3.83-0.79c-1.02-0.54-1.83-1.25-2.44-2.17c-0.62-0.92-1.06-1.98-1.31-3.19c-0.25-1.21-0.37-2.52-0.37-3.92
				c0-1.44,0.15-2.77,0.48-3.98c0.31-1.21,0.79-2.27,1.45-3.17c0.64-0.88,1.48-1.56,2.5-2.06c1-0.48,2.21-0.73,3.62-0.73
				c1.52,0,2.79,0.27,3.81,0.81c1.02,0.54,1.83,1.25,2.43,2.17c0.6,0.92,1.04,2,1.29,3.21c0.25,1.21,0.4,2.5,0.4,3.88
				C157.25,108.07,157.08,109.42,156.79,110.63z M161.76,100.54c-0.54-1.71-1.37-3.15-2.45-4.33c-1.08-1.19-2.43-2.1-4.06-2.73
				c-1.62-0.62-3.54-0.94-5.72-0.94c-2.29,0-4.26,0.35-5.95,1.06c-1.7,0.71-3.12,1.69-4.24,2.94c-1.14,1.27-2,2.77-2.56,4.52
				c-0.56,1.75-0.83,3.65-0.83,5.73c0,2.15,0.25,4.06,0.79,5.77c0.54,1.71,1.35,3.15,2.43,4.33c1.08,1.19,2.44,2.08,4.06,2.71
				c1.62,0.63,3.54,0.94,5.74,0.94c2.25,0,4.22-0.35,5.93-1.06c1.7-0.71,3.12-1.69,4.26-2.96c1.12-1.25,1.97-2.75,2.56-4.5
				c0.56-1.75,0.85-3.67,0.85-5.75C162.57,104.15,162.3,102.25,161.76,100.54z"/>
		</g>
		<g>
			<rect x="78.46" y="128.56" class="st3" width="5.32" height="5.34"/>
			<rect x="90.44" y="128.56" class="st3" width="5.32" height="5.34"/>
			<rect x="102.72" y="137.89" class="st3" width="5.32" height="5.33"/>
			<rect x="114.98" y="128.56" class="st3" width="5.33" height="5.34"/>
			<rect x="138.37" y="128.56" class="st3" width="5.33" height="5.34"/>
			<rect x="150.64" y="137.89" class="st3" width="5.33" height="5.33"/>
			<rect x="162.91" y="145.9" class="st3" width="5.32" height="5.33"/>
			<rect x="175.35" y="137.89" class="st3" width="5.32" height="5.33"/>
			<rect x="187.62" y="137.89" class="st3" width="5.32" height="5.33"/>
			<rect x="199.9" y="145.9" class="st3" width="5.32" height="5.33"/>
			<rect x="212.46" y="155.24" class="st3" width="5.32" height="5.33"/>
			<rect x="78.46" y="137.89" class="st3" width="5.32" height="5.33"/>
			<rect x="90.44" y="137.89" class="st3" width="5.32" height="5.33"/>
			<rect x="102.72" y="145.9" class="st3" width="5.32" height="5.33"/>
			<rect x="114.98" y="137.89" class="st3" width="5.33" height="5.33"/>
			<rect x="138.37" y="137.89" class="st3" width="5.33" height="5.33"/>
			<rect x="150.64" y="145.9" class="st3" width="5.33" height="5.33"/>
			<rect x="162.91" y="155.24" class="st3" width="5.32" height="5.33"/>
			<rect x="175.35" y="145.9" class="st3" width="5.32" height="5.33"/>
			<rect x="187.62" y="145.9" class="st3" width="5.32" height="5.33"/>
			<rect x="199.9" y="155.24" class="st3" width="5.32" height="5.33"/>
		</g>
	</g>
</g>
</svg>
